<svg xmlns="http://www.w3.org/2000/svg" xmlns:xlink="http://www.w3.org/1999/xlink" width="150.33" height="113.6" viewBox="0 0 150.33 113.6"><defs><linearGradient id="a9380e6f-1cee-4255-9380-f67fd609b0c2" x1="27" y1="1.47" x2="27" y2="113.01" gradientUnits="userSpaceOnUse"><stop offset="0" stop-color="#faaf43"/><stop offset="1" stop-color="#fcee1f"/></linearGradient></defs><title>icon-free-consultation</title><g id="e9e9987f-99ce-4621-94b1-359cafb52117" data-name="Layer 2"><g id="af9a1c5e-56e2-41d4-9e99-2a6d4c73e06e" data-name="Layer 1"><path d="M150.33,64.84a61,61,0,0,0-19.51-44.53l-1.56-1.49-2,.86a112.1,112.1,0,0,1-44.39,9,112.05,112.05,0,0,1-44.38-9l-2-.86L35,20.31A61,61,0,0,0,15.45,64.84a61.78,61.78,0,0,0,22.24,47L39.07,113l1.73-.56A136.81,136.81,0,0,1,82.89,106a136.87,136.87,0,0,1,42.1,6.45l1.73.56,1.38-1.18A61.77,61.77,0,0,0,150.33,64.84Z" style="fill:#231f20"/><path d="M147.07,64.84a58,58,0,0,0-18.49-42.16,114.68,114.68,0,0,1-45.69,9.25,114.67,114.67,0,0,1-45.68-9.25A58,58,0,0,0,18.72,64.84c0,17.65,8.13,33.52,21.08,44.51a140.46,140.46,0,0,1,43.09-6.62,140.48,140.48,0,0,1,43.1,6.62C138.94,98.36,147.07,82.49,147.07,64.84Z" style="fill:#be2227"/><path d="M52.38,1.47,31.83,33.21l19.27.2L28.19,68.82,40.83,71,14.05,113,20,84.52,7.33,82.33,18.56,53.9,1.63,53.75,21.05,6.47Z" style="stroke:#631011;stroke-width:2.19301641902982px;fill:url(#a9380e6f-1cee-4255-9380-f67fd609b0c2)"/><path d="M65.38,60.06H58.76v7.27h-4.2V49.26H66.64v3.23H58.76v4.34h6.62Z" style="fill:#fff"/><path d="M73.2,60.4v6.93H69V49.26H75.3a7.83,7.83,0,0,1,5,1.45,4.79,4.79,0,0,1,1.83,4,4,4,0,0,1-.73,2.41,5.28,5.28,0,0,1-2.18,1.64,4.05,4.05,0,0,1,2.39,1.57A4.88,4.88,0,0,1,82.31,63v1.14a7.19,7.19,0,0,0,.21,1.61,2.09,2.09,0,0,0,.74,1.29v.25H78.92A2,2,0,0,1,78.28,66a12.07,12.07,0,0,1-.15-1.83V63.06a2.4,2.4,0,0,0-2.68-2.66Zm0-3.22h2.12a2.92,2.92,0,0,0,1.94-.58,2.06,2.06,0,0,0,.67-1.66,2.39,2.39,0,0,0-.69-1.78,2.64,2.64,0,0,0-1.94-.67H73.2Z" style="fill:#fff"/><path d="M96,59.6H89.67v4.5H97.3v3.23H85.47V49.26H97.31v3.23H89.67v3.88H96Z" style="fill:#fff"/><path d="M110.48,59.6h-6.37v4.5h7.63v3.23H99.91V49.26h11.84v3.23h-7.64v3.88h6.37Z" style="fill:#fff"/><path d="M49.11,79.31l0,0a3.24,3.24,0,0,1-.73,2.33,2.91,2.91,0,0,1-2.2.79,3.1,3.1,0,0,1-2.33-.9A3.44,3.44,0,0,1,43,79.05v-2.8a3.56,3.56,0,0,1,.84-2.53,2.92,2.92,0,0,1,2.25-.89,3,3,0,0,1,2.26.79A3.4,3.4,0,0,1,49.14,76l0,0H47.35a2.12,2.12,0,0,0-.25-1.33,1.15,1.15,0,0,0-1-.4,1.07,1.07,0,0,0-.94.48,2.61,2.61,0,0,0-.33,1.46v2.82a2.53,2.53,0,0,0,.35,1.47,1.19,1.19,0,0,0,1,.48,1,1,0,0,0,.92-.38,2.32,2.32,0,0,0,.23-1.31Z" style="fill:#fff"/><path d="M56.68,79a3.59,3.59,0,0,1-.89,2.58,3.51,3.51,0,0,1-4.76,0A3.59,3.59,0,0,1,50.14,79V76.34A3.61,3.61,0,0,1,51,73.76a3.12,3.12,0,0,1,2.37-.93,3.16,3.16,0,0,1,2.38.93,3.57,3.57,0,0,1,.9,2.58Zm-1.82-2.64a2.56,2.56,0,0,0-.37-1.52,1.27,1.27,0,0,0-1.09-.51,1.23,1.23,0,0,0-1.08.51A2.62,2.62,0,0,0,52,76.32V79a2.56,2.56,0,0,0,.37,1.52,1.23,1.23,0,0,0,1.08.51,1.26,1.26,0,0,0,1.08-.51A2.56,2.56,0,0,0,54.86,79Z" style="fill:#fff"/><path d="M64.56,82.33H62.74l-2.86-6h0v6H58V73h1.83l2.86,6,0,0V73h1.82Z" style="fill:#fff"/><path d="M70.29,79.89A1.25,1.25,0,0,0,70,79a3,3,0,0,0-1-.63,6.66,6.66,0,0,1-2.2-1.15,2.33,2.33,0,0,1-.73-1.81,2.37,2.37,0,0,1,.85-1.88,3.25,3.25,0,0,1,2.17-.72,3,3,0,0,1,2.18.8,2.62,2.62,0,0,1,.81,2v0H70.3a1.61,1.61,0,0,0-.32-1,1.25,1.25,0,0,0-1.76-.07,1.16,1.16,0,0,0-.31.83,1,1,0,0,0,.34.76,4.78,4.78,0,0,0,1.19.67,5,5,0,0,1,2,1.14,2.57,2.57,0,0,1,.67,1.87,2.38,2.38,0,0,1-.81,1.91,3.21,3.21,0,0,1-2.15.69,3.62,3.62,0,0,1-2.32-.79,2.61,2.61,0,0,1-1-2.24v0h1.78A1.78,1.78,0,0,0,68,80.65a1.49,1.49,0,0,0,1.11.38,1.1,1.1,0,0,0,.86-.31A1.21,1.21,0,0,0,70.29,79.89Z" style="fill:#fff"/><path d="M79.65,73v6.38a3,3,0,0,1-.88,2.31,3.64,3.64,0,0,1-4.6,0,3,3,0,0,1-.88-2.31V73h1.83v6.38a1.86,1.86,0,0,0,.35,1.26,1.26,1.26,0,0,0,1,.4,1.28,1.28,0,0,0,1-.38,1.92,1.92,0,0,0,.35-1.28V73Z" style="fill:#fff"/><path d="M82.93,80.87h3.42v1.46H81.09V73h1.84Z" style="fill:#fff"/><path d="M91.14,74.42H89v7.91H87.2V74.42H85.1V73h6Z" style="fill:#fff"/><path d="M95.86,80.33H93.39l-.5,2H91L93.68,73h1.9l2.64,9.37H96.37Zm-2.1-1.46h1.73l-.85-3.32h0Z" style="fill:#fff"/><path d="M103.76,74.42h-2.11v7.91H99.82V74.42h-2.1V73h6Z" style="fill:#fff"/><path d="M106.69,82.33h-1.82V73h1.82Z" style="fill:#fff"/><path d="M114.66,79a3.55,3.55,0,0,1-.9,2.58,3.16,3.16,0,0,1-2.38.93,3.12,3.12,0,0,1-2.37-.93,3.55,3.55,0,0,1-.89-2.58V76.34a3.57,3.57,0,0,1,.89-2.58,3.11,3.11,0,0,1,2.36-.93,3.16,3.16,0,0,1,2.38.93,3.58,3.58,0,0,1,.91,2.58Zm-1.83-2.64a2.56,2.56,0,0,0-.37-1.52,1.27,1.27,0,0,0-1.09-.51,1.23,1.23,0,0,0-1.08.51,2.62,2.62,0,0,0-.36,1.52V79a2.56,2.56,0,0,0,.37,1.52,1.23,1.23,0,0,0,1.08.51,1.26,1.26,0,0,0,1.08-.51,2.56,2.56,0,0,0,.37-1.52Z" style="fill:#fff"/><path d="M122.54,82.33h-1.83l-2.86-6h0v6H116V73h1.83l2.87,6,0,0V73h1.83Z" style="fill:#fff"/></g></g></svg>